<svg width="225" height="67" viewBox="0 0 225 67" fill="none" xmlns="http://www.w3.org/2000/svg">
<rect width="225" height="67" rx="10" fill="black"/>
<path d="M47.4098 34.9204C47.432 33.2084 47.8897 31.5297 48.7404 30.0407C49.591 28.5516 50.807 27.3005 52.2751 26.4038C51.3425 25.0804 50.1121 23.9914 48.6817 23.2231C47.2513 22.4548 45.6603 22.0285 44.035 21.9779C40.5681 21.6164 37.207 24.039 35.4403 24.039C33.6395 24.039 30.9194 22.0138 27.9903 22.0737C26.0956 22.1345 24.2492 22.6819 22.6308 23.6625C21.0124 24.6431 19.6773 26.0234 18.7555 27.6691C14.7626 34.5373 17.7409 44.6314 21.5658 50.1831C23.4795 52.9017 25.716 55.9384 28.6425 55.8307C31.5062 55.7127 32.5757 54.0164 36.0325 54.0164C39.4571 54.0164 40.4606 55.8307 43.4464 55.7622C46.5193 55.7127 48.4554 53.0316 50.3019 50.2873C51.6769 48.3502 52.7349 46.2094 53.4368 43.944C51.6516 43.1938 50.1281 41.9381 49.0563 40.3335C47.9845 38.7288 47.4119 36.8462 47.4098 34.9204Z" fill="white"/>
<path d="M41.7701 18.3267C43.4456 16.3284 44.271 13.7599 44.0711 11.1667C41.5114 11.4339 39.1469 12.6493 37.4488 14.5709C36.6185 15.5097 35.9826 16.6018 35.5775 17.7849C35.1723 18.9679 35.0058 20.2187 35.0875 21.4658C36.3678 21.4789 37.6345 21.2032 38.792 20.6594C39.9495 20.1157 40.9678 19.3181 41.7701 18.3267Z" fill="white"/>
<path d="M84.7582 44.5099H76.0656L73.9781 50.4938H70.2963L78.5298 28.355H82.3551L90.5886 50.4938H86.8439L84.7582 44.5099ZM76.9659 41.7487H83.8562L80.4595 32.0373H80.3645L76.9659 41.7487Z" fill="white"/>
<path d="M108.37 42.4241C108.37 47.44 105.605 50.6626 101.431 50.6626C100.374 50.7163 99.323 50.4799 98.3978 49.9805C97.4726 49.481 96.711 48.7388 96.2001 47.8387H96.1212V55.8334H92.7083V34.3528H96.0118V37.0374H96.0746C96.6089 36.1416 97.3834 35.4032 98.3156 34.9007C99.2479 34.3983 100.303 34.1505 101.369 34.1839C105.588 34.1839 108.37 37.4222 108.37 42.4241ZM104.862 42.4241C104.862 39.1563 103.123 37.0078 100.468 37.0078C97.8608 37.0078 96.1068 39.2015 96.1068 42.4241C96.1068 45.6764 97.8608 47.8544 100.468 47.8544C103.123 47.8544 104.862 45.7216 104.862 42.4241Z" fill="white"/>
<path d="M126.67 42.4241C126.67 47.44 123.905 50.6626 119.731 50.6626C118.674 50.7163 117.623 50.4799 116.698 49.9805C115.772 49.481 115.011 48.7388 114.5 47.8386H114.421V55.8334H111.008V34.3528H114.312V37.0374H114.374C114.909 36.1416 115.683 35.4032 116.615 34.9007C117.548 34.3982 118.603 34.1505 119.669 34.1839C123.888 34.1839 126.67 37.4222 126.67 42.4241ZM123.162 42.4241C123.162 39.1562 121.422 37.0078 118.768 37.0078C116.161 37.0078 114.407 39.2015 114.407 42.4241C114.407 45.6763 116.161 47.8544 118.768 47.8544C121.423 47.8544 123.162 45.7216 123.162 42.4241H123.162Z" fill="white"/>
<path d="M138.765 44.3254C139.018 46.5208 141.215 47.9623 144.217 47.9623C147.093 47.9623 149.163 46.5207 149.163 44.5412C149.163 42.8228 147.915 41.7939 144.959 41.0887L142.004 40.3976C137.816 39.4156 135.872 37.5144 135.872 34.4293C135.872 30.6096 139.301 27.9858 144.17 27.9858C148.989 27.9858 152.292 30.6096 152.403 34.4293H148.958C148.752 32.22 146.871 30.8864 144.122 30.8864C141.372 30.8864 139.491 32.2357 139.491 34.1995C139.491 35.7647 140.693 36.6857 143.632 37.3908L146.144 37.9897C150.823 39.0639 152.768 40.8885 152.768 44.1268C152.768 48.2686 149.369 50.8627 143.964 50.8627C138.906 50.8627 135.492 48.3296 135.271 44.3252L138.765 44.3254Z" fill="white"/>
<path d="M160.133 30.533V34.3528H163.295V36.9765H160.133V45.8748C160.133 47.2572 160.766 47.9013 162.156 47.9013C162.531 47.895 162.906 47.8694 163.279 47.8247V50.4327C162.654 50.5461 162.019 50.5974 161.383 50.5859C158.017 50.5859 156.704 49.3585 156.704 46.2282V36.9765H154.287V34.3528H156.704V30.533H160.133Z" fill="white"/>
<path d="M165.126 42.4241C165.126 37.3456 168.207 34.1543 173.012 34.1543C177.832 34.1543 180.899 37.3455 180.899 42.4241C180.899 47.5166 177.848 50.694 173.012 50.694C168.176 50.694 165.126 47.5166 165.126 42.4241ZM177.421 42.4241C177.421 38.9404 175.777 36.8842 173.012 36.8842C170.246 36.8842 168.603 38.956 168.603 42.4241C168.603 45.9218 170.246 47.9623 173.012 47.9623C175.777 47.9623 177.421 45.9218 177.421 42.4241H177.421Z" fill="white"/>
<path d="M183.713 34.3529H186.968V37.1002H187.047C187.267 36.2421 187.785 35.4838 188.513 34.9528C189.241 34.4217 190.136 34.1502 191.046 34.184C191.439 34.1826 191.831 34.2241 192.215 34.3076V37.4066C191.719 37.2593 191.201 37.1917 190.682 37.2064C190.186 37.1869 189.692 37.2717 189.233 37.4551C188.774 37.6386 188.362 37.9162 188.024 38.269C187.686 38.6218 187.431 39.0414 187.276 39.499C187.121 39.9566 187.069 40.4413 187.125 40.92V50.4938H183.713L183.713 34.3529Z" fill="white"/>
<path d="M207.95 45.753C207.491 48.6831 204.552 50.694 200.791 50.694C195.954 50.694 192.952 47.5479 192.952 42.5007C192.952 37.4379 195.971 34.1543 200.648 34.1543C205.248 34.1543 208.141 37.222 208.141 42.116V43.2511H196.397V43.4513C196.343 44.0454 196.42 44.6438 196.622 45.2069C196.824 45.7699 197.148 46.2848 197.571 46.7172C197.994 47.1496 198.507 47.4897 199.076 47.7149C199.645 47.9401 200.256 48.0452 200.87 48.0232C201.677 48.0966 202.486 47.9153 203.178 47.5062C203.87 47.0972 204.407 46.4822 204.71 45.7529L207.95 45.753ZM196.414 40.9356H204.726C204.757 40.4014 204.673 39.8669 204.481 39.3656C204.289 38.8643 203.992 38.4069 203.609 38.0222C203.226 37.6376 202.765 37.3339 202.256 37.1303C201.746 36.9266 201.199 36.8275 200.648 36.8389C200.092 36.8357 199.541 36.9394 199.027 37.1439C198.513 37.3485 198.045 37.6499 197.651 38.0308C197.258 38.4117 196.946 38.8644 196.733 39.363C196.521 39.8616 196.412 40.396 196.414 40.9356V40.9356Z" fill="white"/>
<path d="M76.5382 11.691C77.2537 11.6412 77.9716 11.7461 78.6403 11.9983C79.309 12.2504 79.9117 12.6435 80.4049 13.1491C80.8982 13.6548 81.2697 14.2604 81.4926 14.9223C81.7156 15.5842 81.7844 16.2859 81.6942 16.9767C81.6942 20.3752 79.8022 22.3287 76.5382 22.3287H72.5801V11.691H76.5382ZM74.2821 20.8243H76.3481C76.8593 20.854 77.371 20.7726 77.8458 20.5861C78.3206 20.3996 78.7466 20.1127 79.0927 19.7462C79.4389 19.3797 79.6965 18.9429 79.8468 18.4676C79.9972 17.9922 80.0364 17.4903 79.9618 16.9984C80.031 16.5085 79.9878 16.0097 79.8351 15.5378C79.6825 15.066 79.4242 14.6328 79.0788 14.2692C78.7335 13.9056 78.3095 13.6207 77.8374 13.4349C77.3653 13.2491 76.8567 13.1669 76.3481 13.1943H74.2821V20.8243Z" fill="white"/>
<path d="M83.6167 18.3111C83.5647 17.7835 83.6269 17.2512 83.7992 16.7483C83.9716 16.2455 84.2502 15.7831 84.6174 15.3909C84.9846 14.9987 85.4322 14.6854 85.9314 14.4709C86.4307 14.2565 86.9705 14.1458 87.5165 14.1458C88.0624 14.1458 88.6023 14.2565 89.1015 14.4709C89.6008 14.6854 90.0483 14.9987 90.4155 15.3909C90.7827 15.7831 91.0614 16.2455 91.2337 16.7483C91.406 17.2512 91.4682 17.7835 91.4162 18.3111C91.4692 18.8392 91.4078 19.3722 91.2359 19.8759C91.064 20.3796 90.7855 20.8428 90.4182 21.2357C90.0509 21.6287 89.603 21.9427 89.1033 22.1576C88.6036 22.3725 88.063 22.4835 87.5165 22.4835C86.9699 22.4835 86.4294 22.3725 85.9296 22.1576C85.4299 21.9427 84.982 21.6287 84.6147 21.2357C84.2474 20.8428 83.9689 20.3796 83.797 19.8759C83.6252 19.3722 83.5637 18.8392 83.6167 18.3111ZM89.7376 18.3111C89.7376 16.5709 88.9323 15.5533 87.5192 15.5533C86.1006 15.5533 85.3026 16.5709 85.3026 18.3111C85.3026 20.0651 86.1006 21.0749 87.5192 21.0749C88.9324 21.0749 89.7376 20.0582 89.7376 18.3111H89.7376Z" fill="white"/>
<path d="M101.784 22.3284H100.091L98.3818 16.4159H98.2527L96.5508 22.3284H94.8739L92.5945 14.3005H94.2498L95.7312 20.4262H95.8531L97.5533 14.3005H99.1189L100.819 20.4262H100.948L102.422 14.3005H104.054L101.784 22.3284Z" fill="white"/>
<path d="M105.972 14.3006H107.543V15.5758H107.664C107.871 15.1178 108.22 14.7338 108.663 14.4775C109.105 14.2211 109.619 14.1051 110.132 14.1456C110.535 14.1162 110.939 14.1751 111.314 14.3179C111.69 14.4607 112.028 14.6838 112.303 14.9705C112.578 15.2573 112.783 15.6004 112.902 15.9744C113.022 16.3485 113.054 16.7439 112.994 17.1314V22.3283H111.362V17.5293C111.362 16.2392 110.785 15.5976 109.578 15.5976C109.305 15.5853 109.032 15.6304 108.779 15.7299C108.525 15.8295 108.297 15.981 108.109 16.1743C107.922 16.3675 107.779 16.5978 107.692 16.8494C107.605 17.101 107.575 17.368 107.603 17.632V22.3284H105.971L105.972 14.3006Z" fill="white"/>
<path d="M115.595 11.1667H117.227V22.3284H115.595V11.1667Z" fill="white"/>
<path d="M119.495 18.3112C119.444 17.7836 119.506 17.2513 119.678 16.7484C119.85 16.2455 120.129 15.7831 120.496 15.3909C120.864 14.9987 121.311 14.6854 121.811 14.4709C122.31 14.2565 122.85 14.1458 123.396 14.1458C123.942 14.1458 124.482 14.2565 124.981 14.4709C125.48 14.6854 125.928 14.9987 126.295 15.3909C126.662 15.7831 126.941 16.2455 127.113 16.7484C127.286 17.2513 127.348 17.7836 127.296 18.3112C127.349 18.8393 127.287 19.3724 127.115 19.876C126.943 20.3797 126.665 20.8429 126.298 21.2359C125.93 21.6288 125.482 21.9428 124.983 22.1577C124.483 22.3726 123.942 22.4836 123.396 22.4836C122.849 22.4836 122.309 22.3726 121.809 22.1577C121.309 21.9428 120.861 21.6288 120.494 21.2359C120.126 20.8429 119.848 20.3797 119.676 19.876C119.504 19.3724 119.443 18.8393 119.495 18.3112ZM125.616 18.3112C125.616 16.5711 124.811 15.5534 123.398 15.5534C121.979 15.5534 121.181 16.5711 121.181 18.3112C121.181 20.0653 121.979 21.0751 123.398 21.0751C124.811 21.0751 125.616 20.0583 125.616 18.3112H125.616Z" fill="white"/>
<path d="M129.014 20.0582C129.014 18.6132 130.122 17.7801 132.09 17.6617L134.33 17.5364V16.8435C134.33 15.9956 133.752 15.5168 132.637 15.5168C131.726 15.5168 131.094 15.8415 130.913 16.4091H129.333C129.5 15.0302 130.836 14.1458 132.712 14.1458C134.785 14.1458 135.954 15.1477 135.954 16.8435V22.3285H134.383V21.2004H134.254C133.992 21.605 133.624 21.9349 133.188 22.1564C132.751 22.3778 132.262 22.4829 131.77 22.4608C131.423 22.4958 131.072 22.4599 130.74 22.3552C130.409 22.2506 130.103 22.0796 129.843 21.8532C129.583 21.6269 129.375 21.3502 129.233 21.041C129.09 20.7318 129.015 20.3971 129.014 20.0582ZM134.33 19.3723V18.7011L132.31 18.8265C131.171 18.9004 130.655 19.2765 130.655 19.9842C130.655 20.7067 131.301 21.1272 132.188 21.1272C132.448 21.1528 132.711 21.1273 132.961 21.0522C133.211 20.9772 133.442 20.8541 133.642 20.6904C133.842 20.5267 134.006 20.3256 134.124 20.0992C134.242 19.8727 134.312 19.6255 134.33 19.3723Z" fill="white"/>
<path d="M138.099 18.311C138.099 15.7744 139.443 14.1674 141.532 14.1674C142.049 14.1443 142.562 14.2645 143.011 14.5139C143.46 14.7633 143.826 15.1316 144.068 15.5758H144.19V11.1667H145.822V22.3284H144.258V21.0601H144.129C143.869 21.5013 143.489 21.865 143.032 22.1119C142.574 22.3588 142.055 22.4794 141.532 22.4607C139.428 22.4608 138.099 20.8538 138.099 18.311ZM139.785 18.311C139.785 20.0138 140.612 21.0384 141.995 21.0384C143.37 21.0384 144.22 19.999 144.22 18.318C144.22 16.6449 143.361 15.5907 141.995 15.5907C140.621 15.5907 139.785 16.6222 139.785 18.311H139.785Z" fill="white"/>
<path d="M152.574 18.3111C152.522 17.7835 152.584 17.2512 152.756 16.7483C152.929 16.2455 153.207 15.7831 153.575 15.3909C153.942 14.9987 154.389 14.6854 154.889 14.4709C155.388 14.2565 155.928 14.1458 156.474 14.1458C157.02 14.1458 157.559 14.2565 158.059 14.4709C158.558 14.6854 159.005 14.9987 159.373 15.3909C159.74 15.7831 160.019 16.2455 160.191 16.7483C160.363 17.2512 160.425 17.7835 160.373 18.3111C160.426 18.8392 160.365 19.3722 160.193 19.8759C160.021 20.3796 159.743 20.8428 159.375 21.2357C159.008 21.6287 158.56 21.9427 158.06 22.1576C157.561 22.3725 157.02 22.4835 156.474 22.4835C155.927 22.4835 155.387 22.3725 154.887 22.1576C154.387 21.9427 153.939 21.6287 153.572 21.2357C153.205 20.8428 152.926 20.3796 152.754 19.8759C152.582 19.3722 152.521 18.8392 152.574 18.3111ZM158.695 18.3111C158.695 16.5709 157.889 15.5533 156.476 15.5533C155.058 15.5533 154.26 16.5709 154.26 18.3111C154.26 20.0651 155.058 21.0749 156.476 21.0749C157.89 21.0749 158.695 20.0582 158.695 18.3111Z" fill="white"/>
<path d="M162.563 14.3006H164.134V15.5758H164.256C164.463 15.1178 164.812 14.7338 165.254 14.4775C165.697 14.2211 166.21 14.1051 166.724 14.1456C167.126 14.1162 167.53 14.1751 167.906 14.3179C168.282 14.4607 168.619 14.6838 168.894 14.9705C169.169 15.2573 169.374 15.6004 169.494 15.9744C169.614 16.3485 169.645 16.7439 169.586 17.1314V22.3283H167.954V17.5293C167.954 16.2392 167.377 15.5976 166.17 15.5976C165.896 15.5853 165.624 15.6304 165.37 15.7299C165.117 15.8295 164.888 15.981 164.701 16.1743C164.513 16.3675 164.371 16.5978 164.284 16.8494C164.196 17.101 164.166 17.368 164.195 17.632V22.3284H162.563V14.3006Z" fill="white"/>
<path d="M178.808 12.302V14.3372H180.599V15.6717H178.808V19.7997C178.808 20.6406 179.165 21.0088 179.977 21.0088C180.185 21.0082 180.393 20.996 180.599 20.9723V22.2919C180.306 22.3428 180.009 22.3699 179.712 22.3729C177.897 22.3729 177.174 21.7531 177.174 20.2053V15.6717H175.861V14.3372H177.174V12.302H178.808Z" fill="white"/>
<path d="M182.829 11.1667H184.446V15.5907H184.575C184.792 15.1284 185.151 14.7422 185.602 14.4849C186.053 14.2275 186.575 14.1115 187.097 14.1526C187.497 14.1315 187.897 14.1963 188.269 14.3426C188.64 14.4889 188.974 14.7129 189.246 14.9988C189.518 15.2846 189.721 15.6252 189.842 15.9963C189.963 16.3673 189.998 16.7597 189.945 17.1454V22.3284H188.311V17.5363C188.311 16.254 187.696 15.6046 186.543 15.6046C186.262 15.5823 185.98 15.6197 185.716 15.7143C185.452 15.8089 185.212 15.9583 185.014 16.1522C184.816 16.346 184.664 16.5796 184.568 16.8366C184.472 17.0935 184.436 17.3677 184.461 17.6398V22.3284H182.829L182.829 11.1667Z" fill="white"/>
<path d="M199.461 20.1608C199.239 20.8945 198.758 21.5292 198.103 21.9538C197.448 22.3783 196.66 22.5658 195.877 22.4834C195.332 22.4973 194.791 22.396 194.291 22.1865C193.79 21.977 193.343 21.6642 192.979 21.27C192.616 20.8757 192.345 20.4094 192.186 19.9034C192.027 19.3974 191.983 18.8639 192.057 18.3398C191.985 17.814 192.029 17.2793 192.188 16.7718C192.347 16.2643 192.616 15.7958 192.978 15.3981C193.339 15.0004 193.785 14.6828 194.284 14.4667C194.783 14.2506 195.324 14.1411 195.87 14.1456C198.171 14.1456 199.559 15.6717 199.559 18.1926V18.7454H193.72V18.8342C193.694 19.1288 193.732 19.4253 193.832 19.7048C193.931 19.9843 194.09 20.2405 194.297 20.457C194.504 20.6735 194.756 20.8456 195.036 20.9622C195.316 21.0788 195.618 21.1373 195.922 21.134C196.313 21.1795 196.708 21.1113 197.058 20.938C197.409 20.7647 197.698 20.4942 197.889 20.1608L199.461 20.1608ZM193.72 17.5737H197.897C197.917 17.3043 197.879 17.0336 197.786 16.7792C197.692 16.5248 197.545 16.2921 197.353 16.0963C197.162 15.9004 196.93 15.7457 196.673 15.642C196.416 15.5383 196.139 15.4879 195.861 15.4941C195.579 15.4906 195.299 15.5421 195.037 15.6454C194.776 15.7487 194.538 15.9017 194.339 16.0956C194.139 16.2894 193.982 16.52 193.875 16.7739C193.769 17.0277 193.716 17.2997 193.72 17.5737H193.72Z" fill="white"/>
</svg>
