<svg width="293" height="82" viewBox="0 0 293 82" fill="none" xmlns="http://www.w3.org/2000/svg">
<g clip-path="url(#clip0_2721_425)">
<path d="M77.9578 57.7608L68.9482 64.8948C64.9682 68.019 54.5122 76.2477 48.8626 80.6921C46.668 82.4182 43.5643 82.4346 41.3491 80.7331C32.5007 73.923 11.0636 57.4246 9.77004 56.4119C5.64134 53.2303 2.52518 48.7572 1.04562 43.7757C-2.04574 33.4437 1.76887 22.1646 11.2992 16.6542C15.7999 13.9933 21.218 12.8863 26.4089 13.6202C34.6787 14.7354 41.3284 20.2745 48.379 23.9399C56.777 28.6057 66.0386 27.6709 74.3704 23.2142C68.9027 29.5651 59.3435 31.7463 51.4125 28.9911C43.8081 26.609 37.5097 21.1355 30.0953 18.6878C24.5615 16.7895 18.5027 17.3594 13.5351 20.3647C5.80252 24.9116 2.81861 34.1161 5.3603 42.4924C6.58776 46.5801 9.15838 50.225 12.5597 52.8244C13.8037 53.7551 34.8646 69.7287 43.2915 76.1083C44.3702 76.9242 45.858 76.9324 46.9449 76.1247C53.0161 71.6147 61.7157 65.1859 66.4478 61.6763C66.4478 61.6763 70.4608 58.7202 73.7299 56.3094C73.8621 56.3955 74.0026 56.4816 74.1431 56.5636C75.2425 57.2073 76.565 57.6214 77.9536 57.7608H77.9578Z" fill="#00CB71"/>
<path d="M88.4675 43.6691C88.1658 44.731 87.7898 45.7683 87.3393 46.7728C87.2649 46.7523 87.1864 46.7318 87.0996 46.7113C86.2069 46.5022 85.0001 46.3464 84.0041 46.2439C84.4752 45.3747 84.8885 44.4727 85.2315 43.5502C87.083 38.5646 86.988 33.0624 85.0001 28.1301C81.2557 18.6755 70.7955 13.0954 60.7403 14.8953C57.5498 15.4324 54.5617 16.5722 51.7142 18.1712C53.5946 16.4738 55.8842 15.1905 58.3144 14.3459C70.312 10.3402 83.814 17.0437 87.9633 28.905C89.6909 33.6077 89.8645 38.8516 88.4717 43.665L88.4675 43.6691Z" fill="#00CB71"/>
<path d="M87.5335 55.6944C86.0746 56.2643 81.202 56.621 79.3546 56.6579C79.2348 56.6579 79.1273 56.6579 79.0364 56.6579C77.4039 56.6579 75.9078 56.2479 74.7424 55.5632C74.015 55.1409 73.4157 54.6079 72.9901 54.0052C69.0721 53.9027 58.9921 53.6157 58.9053 53.6239L57.6118 53.587C57.5374 53.3943 56.1901 49.6305 55.099 46.5801C52.1771 53.4353 46.8168 66.0059 45.6059 68.8513C44.9363 66.1904 41.2581 51.7256 39.1256 43.3165C37.1459 47.9167 34.5671 53.9314 34.472 54.1405L33.1164 53.9683L16.085 51.8281L31.6493 49.8683L37.8361 36.5843L40.1216 31.6807L41.4648 36.8877L46.6184 56.8834C49.7222 50.2045 54.7518 39.3887 55.3304 38.1423C56.1363 40.139 58.802 46.7277 60.1204 49.9913L73.0479 49.6428C74.1762 48.1094 76.4327 47.068 79.0405 47.068C79.8175 47.068 81.6029 47.1623 83.3676 47.3345C84.6653 47.4616 85.9548 47.6297 86.8351 47.8347C87.1161 47.9003 87.3517 47.9659 87.5335 48.0397C87.8848 48.1791 87.9716 48.5276 87.8683 48.8064C87.7898 49.0196 87.5955 49.1877 87.3103 49.1877H78.805C78.2553 49.1877 77.809 49.6305 77.809 50.1758V50.3808C77.809 50.9261 78.2553 51.3689 78.805 51.3689H87.3103C87.7898 51.3689 88.0749 51.8978 87.8104 52.2955L87.7939 52.3201C87.6823 52.48 87.4963 52.5702 87.3062 52.5702H78.805C78.2553 52.5702 77.809 53.013 77.809 53.5583C77.809 54.1036 78.2553 54.5464 78.805 54.5464H87.3103C87.5914 54.5464 87.7856 54.7104 87.8683 54.9195C87.9799 55.1983 87.889 55.5591 87.5335 55.6944Z" fill="white"/>
<path d="M58.397 -4.61424e-06L58.2854 0.0368954C52.921 1.9229 49.9412 7.6547 51.5489 13.1118L51.8382 14.063L52.7474 13.6571C57.9878 11.3611 60.4799 5.3956 58.4548 0.114795C58.4425 0.0778954 58.43 0.0409954 58.4011 -0.00410461L58.397 -4.61424e-06Z" fill="#00CB71"/>
<path d="M50.1768 12.9642C48.2839 5.4243 40.7911 0.680596 33.1371 2.1279C33.0875 2.1402 33.0338 2.1484 32.9842 2.1648C32.9842 2.2222 32.9924 2.2714 33.009 2.3247C34.286 9.9507 41.3532 15.2889 49.1353 14.4361L50.5074 14.2844L50.1768 12.9642Z" fill="#00CB71"/>
<path d="M111.731 43.1033L114.116 18.5443L124.651 34.7352L135.185 18.5443L137.586 43.1033H135.784L133.784 24.0342L124.651 37.9906L115.5 24.0342L113.533 43.1033H111.731Z" fill="white"/>
<path d="M156.436 42.7097C154.891 43.5789 153.229 44.0176 151.452 44.0176C148.662 44.0176 146.278 43.0377 144.302 41.0738C142.327 39.1099 141.351 36.7647 141.351 33.9972C141.351 31.2297 142.335 28.864 144.302 26.9042C146.282 24.9526 148.662 23.9768 151.452 23.9768C153.229 23.9768 154.891 24.4073 156.436 25.2683C157.982 26.1375 159.209 27.3347 160.119 28.8558L160.602 29.6512L159.8 30.1145L144.716 38.745C144.98 39.1181 145.278 39.4666 145.6 39.7864C147.224 41.3854 149.171 42.1849 151.452 42.1849C152.907 42.1849 154.262 41.8323 155.519 41.1271C156.796 40.4219 157.808 39.4461 158.552 38.1997L160.119 39.1263C159.205 40.6474 157.978 41.8446 156.436 42.7138V42.7097ZM143.819 37.1542L158.04 29.0198C157.35 28.126 156.511 27.4044 155.523 26.855C154.267 26.1498 152.911 25.7972 151.456 25.7972C149.179 25.7972 147.228 26.5967 145.604 28.1957C143.992 29.7947 143.186 31.7299 143.186 34.0013C143.186 35.1042 143.397 36.1579 143.819 37.1583V37.1542Z" fill="white"/>
<path d="M182.275 26.9165C182.696 27.3265 183.077 27.7652 183.407 28.2408V24.8993H185.242V43.1238H183.407V39.7659C183.072 40.2415 182.696 40.6802 182.275 41.0902C180.308 43.0541 177.931 44.034 175.141 44.034C172.352 44.034 169.967 43.0541 167.992 41.0902C166.024 39.1386 165.041 36.7811 165.041 34.0136C165.041 31.2461 166.024 28.8804 167.992 26.9206C169.971 24.969 172.352 23.9932 175.141 23.9932C177.931 23.9932 180.308 24.969 182.275 26.9206V26.9165ZM183.407 33.9931C183.407 31.734 182.601 29.8029 180.989 28.2039C179.365 26.6049 177.415 25.8054 175.137 25.8054C172.86 25.8054 170.909 26.6049 169.285 28.2039C167.673 29.8029 166.868 31.7381 166.868 34.0095C166.868 36.2809 167.673 38.1997 169.285 39.7987C170.909 41.3977 172.856 42.1972 175.137 42.1972C177.419 42.1972 179.365 41.3977 180.989 39.7987C182.601 38.1997 183.407 36.2727 183.407 34.0095V33.9931Z" fill="white"/>
<path d="M193.09 19.4094V43.1074H191.255V19.4094H193.09Z" fill="white"/>
<path d="M209.142 22.9149V43.1074H205.443V22.9149H198.36V19.2454H216.23V22.9149H209.146H209.142Z" fill="white"/>
<path d="M217.011 33.9275C217.011 31.2707 217.962 28.9993 219.863 27.1133C221.752 25.2273 224.041 24.2843 226.732 24.2843C229.422 24.2843 231.699 25.2273 233.6 27.1133C235.502 28.9993 236.452 31.2707 236.452 33.9275C236.452 36.5843 235.502 38.8721 233.6 40.7581C231.699 42.6318 229.41 43.5707 226.732 43.5707C224.054 43.5707 221.752 42.6318 219.863 40.7581C217.962 38.8721 217.011 36.5966 217.011 33.9275ZM222.479 38.1628C223.644 39.319 225.062 39.9012 226.732 39.9012C228.401 39.9012 229.802 39.3231 230.984 38.1628C232.162 36.9943 232.753 35.5839 232.753 33.9275C232.753 32.2711 232.162 30.8812 230.984 29.7086C229.807 28.5524 228.389 27.9702 226.732 27.9702C225.074 27.9702 223.649 28.5483 222.479 29.7086C221.301 30.8771 220.71 32.2834 220.71 33.9275C220.71 35.5716 221.297 36.9943 222.479 38.1628Z" fill="white"/>
<path d="M240.8 48.6301V24.7517H244.499V26.9862C245.987 25.1904 247.995 24.2925 250.516 24.2925C253.194 24.2925 255.484 25.2355 257.385 27.1215C259.286 29.0075 260.237 31.2789 260.237 33.9357C260.237 36.5925 259.286 38.8803 257.385 40.7663C255.484 42.64 253.194 43.5789 250.516 43.5789C247.995 43.5789 245.987 42.6851 244.499 40.9016V48.6424H240.8V48.6301ZM244.499 33.9439C244.499 35.588 245.086 36.9943 246.268 38.1628C247.433 39.319 248.851 39.9012 250.52 39.9012C252.19 39.9012 253.595 39.3231 254.773 38.1628C255.951 36.9943 256.542 35.5839 256.542 33.9275C256.542 32.2711 255.951 30.8812 254.773 29.7086C253.595 28.5524 252.178 27.9702 250.52 27.9702C248.863 27.9702 247.437 28.5483 246.268 29.7086C245.09 30.8771 244.499 32.2834 244.499 33.9275V33.9439Z" fill="white"/>
<path d="M268.738 19.2085V22.878H265.039V19.2085H268.738ZM268.738 24.7476V43.1033H265.039V24.7476H268.738Z" fill="white"/>
<path d="M289.154 26.9821V24.7476H292.857V43.1033H289.154V40.8893C287.654 42.6769 285.65 43.5666 283.137 43.5666C280.446 43.5666 278.157 42.6277 276.268 40.754C274.367 38.868 273.416 36.5925 273.416 33.9234C273.416 31.2543 274.367 28.9952 276.268 27.1092C278.157 25.2232 280.446 24.2802 283.137 24.2802C285.65 24.2802 287.654 25.1781 289.154 26.9739V26.9821ZM289.154 33.9275C289.142 32.2834 288.555 30.8812 287.385 29.7086C286.207 28.5524 284.79 27.9702 283.133 27.9702C281.475 27.9702 280.049 28.5483 278.88 29.7086C277.702 30.8771 277.111 32.2834 277.111 33.9275C277.111 35.5716 277.698 36.9943 278.88 38.1628C280.045 39.319 281.463 39.9012 283.133 39.9012C284.802 39.9012 286.207 39.3231 287.385 38.1628C288.551 36.9943 289.142 35.588 289.154 33.9439V33.9275Z" fill="white"/>
<path d="M122.646 56.7235C122.894 56.826 123.105 56.9613 123.278 57.1335C123.448 57.3016 123.58 57.4984 123.667 57.7157C123.754 57.933 123.799 58.1626 123.799 58.3922C123.799 58.6792 123.729 58.958 123.584 59.2245C123.44 59.4951 123.221 59.7206 122.927 59.9092C123.316 60.0527 123.605 60.2782 123.791 60.5857C123.977 60.8932 124.076 61.2212 124.076 61.5615C124.076 61.8034 124.031 62.0371 123.944 62.2667C123.857 62.4963 123.733 62.7013 123.572 62.8858C123.411 63.0703 123.208 63.2138 122.969 63.3204C122.729 63.427 122.456 63.4803 122.15 63.4803H119.088V56.5636H121.803C122.117 56.5636 122.398 56.6169 122.646 56.7194V56.7235ZM119.778 59.5894H121.787C122.22 59.5894 122.547 59.4705 122.77 59.2286C122.993 58.9867 123.101 58.7202 123.101 58.4209C123.101 58.1216 122.989 57.8551 122.77 57.6091C122.547 57.3631 122.22 57.2401 121.787 57.2401H119.778V59.5894ZM119.778 62.812H122.063C122.287 62.812 122.477 62.7751 122.638 62.7054C122.799 62.6357 122.935 62.5414 123.047 62.4225C123.159 62.3077 123.241 62.1724 123.295 62.0248C123.349 61.8772 123.378 61.7214 123.378 61.5615C123.378 61.4016 123.349 61.2417 123.295 61.0859C123.241 60.9301 123.159 60.7907 123.047 60.6677C122.935 60.5488 122.799 60.4463 122.638 60.3725C122.477 60.2946 122.282 60.2577 122.063 60.2577H119.778V62.8079V62.812Z" fill="#CCCCCC"/>
<path d="M128.395 63.4885V56.5718H132.689V57.2442H129.089V59.6632H132.689V60.3356H129.089V62.8202H132.689V63.4926H128.395V63.4885Z" fill="#CCCCCC"/>
<path d="M139.301 63.4885H138.607V57.2442H136.392V56.5718H141.517V57.2442H139.301V63.4885Z" fill="#CCCCCC"/>
<path d="M147.435 63.4885H146.741V57.2442H144.525V56.5718H149.65V57.2442H147.435V63.4885Z" fill="#CCCCCC"/>
<path d="M153.349 63.4885V56.5718H157.643V57.2442H154.039V59.6632H157.643V60.3356H154.039V62.8202H157.643V63.4926H153.349V63.4885Z" fill="#CCCCCC"/>
<path d="M162.731 60.7333V63.4885H162.036V56.5718H164.876C165.173 56.5718 165.45 56.6292 165.706 56.7399C165.962 56.8506 166.19 57.0023 166.384 57.1909C166.578 57.3795 166.731 57.5968 166.847 57.851C166.963 58.1011 167.02 58.3717 167.02 58.6587C167.02 58.917 166.975 59.163 166.88 59.3967C166.789 59.6304 166.657 59.8395 166.483 60.0281C166.314 60.2167 166.111 60.3725 165.876 60.4914C165.64 60.6103 165.384 60.6923 165.107 60.7251L167.326 63.4926H166.467L164.251 60.7374H162.726L162.731 60.7333ZM165.446 59.9543C165.624 59.8846 165.772 59.7821 165.905 59.6509C166.033 59.5197 166.136 59.3721 166.215 59.1999C166.293 59.0277 166.334 58.8473 166.334 58.6505C166.334 58.4537 166.293 58.2692 166.215 58.1011C166.136 57.933 166.033 57.7854 165.905 57.6583C165.776 57.5312 165.624 57.4328 165.446 57.3549C165.272 57.277 165.082 57.2401 164.88 57.2401H162.731V60.0609H164.88C165.082 60.0609 165.272 60.024 165.446 59.9543Z" fill="#CCCCCC"/>
<path d="M179.841 56.744C180.117 56.8588 180.361 57.0187 180.568 57.2196C180.775 57.4205 180.94 57.6542 181.06 57.9248C181.18 58.1954 181.242 58.4783 181.242 58.7858C181.242 59.0933 181.18 59.3762 181.06 59.6468C180.94 59.9174 180.775 60.1511 180.568 60.352C180.361 60.5529 180.117 60.7128 179.841 60.8276C179.564 60.9424 179.27 61.0039 178.956 61.0039H176.948V63.4885H176.253V56.5718H178.956C179.27 56.5718 179.564 56.6292 179.841 56.7481V56.744ZM176.943 60.3315H178.952C179.175 60.3315 179.382 60.2905 179.576 60.2126C179.77 60.1306 179.94 60.024 180.08 59.8846C180.225 59.7452 180.336 59.5812 180.419 59.3926C180.502 59.204 180.543 59.0031 180.543 58.7899C180.543 58.5767 180.502 58.3717 180.419 58.1872C180.336 58.0027 180.225 57.8346 180.08 57.6952C179.936 57.5558 179.77 57.4451 179.576 57.3672C179.382 57.2852 179.175 57.2483 178.952 57.2483H176.943V60.3397V60.3315Z" fill="#CCCCCC"/>
<path d="M185.494 63.4885V56.5718H189.788V57.2442H186.184V59.6632H189.788V60.3356H186.184V62.8202H189.788V63.4926H185.494V63.4885Z" fill="#CCCCCC"/>
<path d="M194.301 58.4414C194.425 57.9986 194.603 57.6378 194.834 57.359C195.066 57.0802 195.347 56.8793 195.678 56.7563C196.008 56.6292 196.388 56.5677 196.814 56.5677C197.24 56.5677 197.616 56.6292 197.951 56.7563C198.281 56.8834 198.566 57.0843 198.794 57.359C199.025 57.6378 199.203 57.9986 199.327 58.4414C199.451 58.8842 199.513 59.4254 199.513 60.0609C199.513 60.6964 199.451 61.2335 199.327 61.6681C199.203 62.1027 199.025 62.4553 198.794 62.7218C198.562 62.9924 198.281 63.1851 197.951 63.304C197.62 63.4229 197.24 63.4844 196.814 63.4844C196.388 63.4844 196.008 63.4229 195.678 63.304C195.347 63.1851 195.062 62.9883 194.834 62.7218C194.603 62.4512 194.425 62.1027 194.301 61.6681C194.177 61.2335 194.115 60.7005 194.115 60.0609C194.115 59.4213 194.177 58.8842 194.301 58.4414ZM194.946 61.3565C195.037 61.7091 195.169 61.9961 195.343 62.2175C195.512 62.4389 195.723 62.5947 195.975 62.689C196.227 62.7833 196.508 62.8284 196.818 62.8284C197.128 62.8284 197.413 62.7833 197.661 62.689C197.909 62.5947 198.12 62.4389 198.294 62.2175C198.463 61.9961 198.595 61.7132 198.69 61.3565C198.781 61.0039 198.831 60.5693 198.831 60.0609C198.831 59.5525 198.785 59.1015 198.69 58.7448C198.595 58.3881 198.467 58.097 198.294 57.8715C198.124 57.646 197.913 57.4861 197.661 57.3877C197.409 57.2893 197.128 57.2401 196.818 57.2401C196.508 57.2401 196.223 57.2893 195.975 57.3877C195.727 57.4861 195.516 57.646 195.343 57.8715C195.173 58.097 195.041 58.3881 194.946 58.7448C194.855 59.1015 194.806 59.5402 194.806 60.0609C194.806 60.5816 194.851 61.0039 194.946 61.3565Z" fill="#CCCCCC"/>
<path d="M207.431 56.744C207.708 56.8588 207.952 57.0187 208.159 57.2196C208.365 57.4205 208.531 57.6542 208.651 57.9248C208.77 58.1954 208.832 58.4783 208.832 58.7858C208.832 59.0933 208.775 59.3762 208.651 59.6468C208.527 59.9174 208.365 60.1511 208.159 60.352C207.952 60.5529 207.708 60.7128 207.431 60.8276C207.154 60.9424 206.857 61.0039 206.543 61.0039H204.534V63.4885H203.84V56.5718H206.543C206.857 56.5718 207.154 56.6292 207.431 56.7481V56.744ZM204.534 60.3315H206.543C206.766 60.3315 206.973 60.2905 207.167 60.2126C207.361 60.1306 207.531 60.024 207.671 59.8846C207.816 59.7452 207.927 59.5812 208.01 59.3926C208.093 59.204 208.134 59.0031 208.134 58.7899C208.134 58.5767 208.093 58.3717 208.01 58.1872C207.927 58.0027 207.816 57.8346 207.671 57.6952C207.526 57.5558 207.361 57.4451 207.167 57.3672C206.973 57.2852 206.766 57.2483 206.543 57.2483H204.534V60.3397V60.3315Z" fill="#CCCCCC"/>
<path d="M217.102 62.8161V63.4885H213.085V56.5718H213.779V62.8161H217.102Z" fill="#CCCCCC"/>
<path d="M220.801 63.4885V56.5718H225.095V57.2442H221.491V59.6632H225.095V60.3356H221.491V62.8202H225.095V63.4926H220.801V63.4885Z" fill="#CCCCCC"/>
<path d="M230.352 57.8797C230.34 57.6173 230.323 57.3385 230.311 57.0474C230.298 56.7563 230.282 56.4775 230.269 56.2151C230.257 55.9527 230.249 55.7559 230.249 55.6288H231.079C231.071 55.7559 231.059 55.9486 231.046 56.2151C231.034 56.4775 231.017 56.7563 231.005 57.0474C230.993 57.3385 230.976 57.6173 230.964 57.8797C230.951 58.1421 230.943 58.3348 230.943 58.4496H230.389C230.381 58.3348 230.369 58.1421 230.356 57.8797H230.352Z" fill="#CCCCCC"/>
<path d="M239.61 61.1966C239.42 61.0203 239.188 60.8563 238.911 60.6923C238.634 60.5324 238.328 60.3684 237.998 60.2085C237.667 60.0486 237.361 59.8723 237.084 59.6837C236.808 59.4951 236.576 59.286 236.386 59.0605C236.196 58.8309 236.101 58.5685 236.101 58.2733C236.101 58.0601 236.155 57.8469 236.262 57.6419C236.37 57.4369 236.527 57.2524 236.733 57.0925C236.94 56.9326 237.192 56.8055 237.49 56.7112C237.783 56.6169 238.126 56.5718 238.514 56.5718C238.829 56.5718 239.134 56.6005 239.436 56.6538C239.738 56.7071 240.006 56.7686 240.246 56.8424L240.023 57.4861C239.812 57.4164 239.572 57.3549 239.308 57.3098C239.043 57.2647 238.779 57.2442 238.51 57.2442C237.957 57.2442 237.531 57.3467 237.237 57.5517C236.94 57.7567 236.795 57.9986 236.795 58.2774C236.795 58.5029 236.89 58.7038 237.08 58.8801C237.27 59.0605 237.502 59.2327 237.779 59.3967C238.056 59.5607 238.362 59.7247 238.692 59.8887C239.023 60.0527 239.329 60.2249 239.606 60.4135C239.882 60.6021 240.114 60.8071 240.304 61.0244C240.494 61.2417 240.589 61.4959 240.589 61.7829C240.589 61.9961 240.535 62.2093 240.428 62.4143C240.321 62.6193 240.168 62.7997 239.965 62.9596C239.763 63.1195 239.51 63.2425 239.209 63.3409C238.907 63.4393 238.564 63.4885 238.176 63.4885C237.853 63.4885 237.539 63.4598 237.242 63.4065C236.94 63.3532 236.671 63.2917 236.432 63.2179L236.655 62.5865C236.865 62.648 237.101 62.7013 237.361 62.7464C237.622 62.7915 237.895 62.812 238.18 62.812C238.733 62.812 239.159 62.7054 239.453 62.4963C239.746 62.2872 239.895 62.0453 239.895 61.7788C239.895 61.5656 239.8 61.3688 239.61 61.1925V61.1966Z" fill="#CCCCCC"/>
<path d="M253.942 62.8161V63.4885H249.925V56.5718H250.62V62.8161H253.946H253.942Z" fill="#CCCCCC"/>
<path d="M258.336 63.4885H257.641V56.5718H258.336V63.4885Z" fill="#CCCCCC"/>
<path d="M265.043 62.6275L266.874 56.5718H267.593L265.514 63.4885H264.56L262.456 56.5718H263.175L265.047 62.6275H265.043Z" fill="#CCCCCC"/>
<path d="M271.705 63.4885V56.5718H275.999V57.2442H272.395V59.6632H275.999V60.3356H272.395V62.8202H275.999V63.4926H271.705V63.4885Z" fill="#CCCCCC"/>
<path d="M283.769 61.1966C283.579 61.0203 283.348 60.8563 283.071 60.6923C282.794 60.5324 282.488 60.3684 282.157 60.2085C281.827 60.0486 281.521 59.8723 281.244 59.6837C280.967 59.4951 280.736 59.286 280.545 59.0605C280.355 58.8309 280.26 58.5685 280.26 58.2733C280.26 58.0601 280.314 57.8469 280.421 57.6419C280.529 57.4369 280.686 57.2524 280.893 57.0925C281.099 56.9326 281.351 56.8055 281.649 56.7112C281.942 56.6169 282.285 56.5718 282.674 56.5718C282.988 56.5718 283.294 56.6005 283.595 56.6538C283.897 56.7071 284.166 56.7686 284.406 56.8424L284.182 57.4861C283.972 57.4164 283.732 57.3549 283.467 57.3098C283.203 57.2647 282.938 57.2442 282.67 57.2442C282.116 57.2442 281.69 57.3467 281.397 57.5517C281.099 57.7567 280.955 57.9986 280.955 58.2774C280.955 58.5029 281.05 58.7038 281.24 58.8801C281.43 59.0605 281.661 59.2327 281.938 59.3967C282.215 59.5607 282.521 59.7247 282.852 59.8887C283.182 60.0527 283.488 60.2249 283.765 60.4135C284.042 60.6021 284.273 60.8071 284.463 61.0244C284.653 61.2417 284.749 61.4959 284.749 61.7829C284.749 61.9961 284.695 62.2093 284.587 62.4143C284.48 62.6193 284.327 62.7997 284.124 62.9596C283.922 63.1195 283.67 63.2425 283.368 63.3409C283.066 63.4393 282.723 63.4885 282.335 63.4885C282.013 63.4885 281.699 63.4598 281.401 63.4065C281.099 63.3532 280.831 63.2917 280.591 63.2179L280.814 62.5865C281.025 62.648 281.26 62.7013 281.521 62.7464C281.781 62.7915 282.054 62.812 282.339 62.812C282.893 62.812 283.319 62.7054 283.612 62.4963C283.905 62.2872 284.054 62.0453 284.054 61.7788C284.054 61.5656 283.959 61.3688 283.769 61.1925V61.1966Z" fill="#CCCCCC"/>
</g>
<defs>
<clipPath id="clip0_2721_425">
<rect width="292.857" height="82" fill="white"/>
</clipPath>
</defs>
</svg>
