<svg width="369" height="62" viewBox="0 0 369 62" fill="none" xmlns="http://www.w3.org/2000/svg">
<path d="M0 50.4352L4.85544 0L26.3053 33.2502L47.7551 0L52.6442 50.4352H48.9753L44.9024 11.2743L26.3053 39.9356L7.67447 11.2743L3.66893 50.4352H0Z" fill="#663698"/>
<path d="M91.025 49.6268C87.8778 51.4118 84.4949 52.3128 80.8765 52.3128C75.1964 52.3128 70.3409 50.3004 66.3186 46.2673C62.313 42.2594 60.3102 37.4179 60.3102 31.7345C60.3102 26.0511 62.313 21.1928 66.3186 17.1681C70.3493 13.1602 75.1964 11.1562 80.8765 11.1562C84.4949 11.1562 87.8778 12.0403 91.025 13.8085C94.1722 15.5935 96.6714 18.0522 98.5227 21.1759L99.5073 22.8094L97.8748 23.7608L67.1601 41.4848C67.707 42.251 68.3045 42.9667 68.9609 43.6234C72.268 46.9072 76.2314 48.5491 80.8765 48.5491C83.8386 48.5491 86.5987 47.8249 89.1568 46.3767C91.7571 44.9285 93.8188 42.9246 95.3335 40.3649L98.5227 42.2678C96.663 45.3916 94.1638 47.8502 91.025 49.6352V49.6268ZM65.334 38.2178L94.29 21.5127C92.8847 19.6772 91.1765 18.1953 89.1653 17.067C86.6071 15.6188 83.847 14.8947 80.8849 14.8947C76.2483 14.8947 72.2764 16.5366 68.9693 19.8203C65.6874 23.1041 64.0465 27.0783 64.0465 31.7429C64.0465 34.0079 64.4757 36.1718 65.334 38.2262V38.2178Z" fill="#663698"/>
<path d="M143.636 17.1936C144.494 18.0356 145.268 18.9365 145.941 19.9132V13.051H149.678V50.4775H145.941V43.5816C145.26 44.5583 144.494 45.4592 143.636 46.3012C139.63 50.3343 134.791 52.3467 129.111 52.3467C123.431 52.3467 118.576 50.3343 114.553 46.3012C110.548 42.2933 108.545 37.4519 108.545 31.7684C108.545 26.085 110.548 21.2267 114.553 17.202C118.584 13.1941 123.431 11.1902 129.111 11.1902C134.791 11.1902 139.63 13.1941 143.636 17.202V17.1936ZM145.941 31.7263C145.941 27.087 144.3 23.1212 141.019 19.8374C137.711 16.5537 133.74 14.9118 129.103 14.9118C124.466 14.9118 120.494 16.5537 117.187 19.8374C113.905 23.1212 112.265 27.0954 112.265 31.76C112.265 36.4246 113.905 40.3652 117.187 43.6489C120.494 46.9327 124.466 48.5746 129.103 48.5746C133.74 48.5746 137.711 46.9327 141.019 43.6489C144.3 40.3652 145.941 36.4078 145.941 31.76V31.7263Z" fill="#663698"/>
<path d="M165.658 1.77661V50.4437H161.921V1.77661H165.658Z" fill="#663698"/>
<path d="M198.342 8.97527V50.4433H190.81V8.97527H176.387V1.43945H212.773V8.97527H198.35H198.342Z" fill="#663698"/>
<path d="M214.364 31.5917C214.364 26.1356 216.299 21.471 220.17 17.5978C224.016 13.7247 228.677 11.7881 234.156 11.7881C239.634 11.7881 244.27 13.7247 248.141 17.5978C252.012 21.471 253.948 26.1356 253.948 31.5917C253.948 37.0478 252.012 41.7461 248.141 45.6193C244.27 49.4672 239.609 51.3953 234.156 51.3953C228.703 51.3953 224.016 49.4672 220.17 45.6193C216.299 41.7461 214.364 37.0731 214.364 31.5917ZM225.497 40.2895C227.87 42.6639 230.756 43.8595 234.156 43.8595C237.555 43.8595 240.416 42.6723 242.815 40.2895C245.213 37.8898 246.416 34.9933 246.416 31.5917C246.416 28.1901 245.213 25.3357 242.815 22.9276C240.416 20.5532 237.53 19.3576 234.156 19.3576C230.781 19.3576 227.878 20.5448 225.497 22.9276C223.098 25.3273 221.895 28.2153 221.895 31.5917C221.895 34.9681 223.09 37.8898 225.497 40.2895Z" fill="#663698"/>
<path d="M262.8 61.7853V12.7477H270.332V17.3366C273.361 13.6486 277.451 11.8047 282.584 11.8047C288.037 11.8047 292.699 13.7413 296.57 17.6144C300.441 21.4876 302.376 26.1522 302.376 31.6083C302.376 37.0644 300.441 41.7627 296.57 45.6359C292.699 49.4838 288.037 51.4119 282.584 51.4119C277.451 51.4119 273.361 49.5764 270.332 45.9137V61.8105H262.8V61.7853ZM270.332 31.6251C270.332 35.0015 271.527 37.8896 273.933 40.2892C276.306 42.6636 279.193 43.8593 282.592 43.8593C285.992 43.8593 288.853 42.6721 291.251 40.2892C293.65 37.8896 294.853 34.9931 294.853 31.5915C294.853 28.1898 293.65 25.3355 291.251 22.9274C288.853 20.553 285.967 19.3573 282.592 19.3573C279.218 19.3573 276.315 20.5445 273.933 22.9274C271.535 25.3271 270.332 28.2151 270.332 31.5915V31.6251Z" fill="#663698"/>
<path d="M319.686 1.36401V8.89983H312.154V1.36401H319.686ZM319.686 12.7393V50.4352H312.154V12.7393H319.686Z" fill="#663698"/>
<path d="M361.256 17.3278V12.7389H368.787V50.4348H361.256V45.8881C358.201 49.5592 354.12 51.3863 349.004 51.3863C343.525 51.3863 338.863 49.4581 335.018 45.6102C331.147 41.7371 329.211 37.064 329.211 31.5827C329.211 26.1013 331.147 21.4619 335.018 17.5888C338.863 13.7156 343.525 11.7791 349.004 11.7791C354.12 11.7791 358.201 13.623 361.256 17.3109V17.3278ZM361.256 31.5911C361.231 28.2147 360.036 25.3351 357.654 22.927C355.256 20.5526 352.37 19.357 348.995 19.357C345.621 19.357 342.718 20.5442 340.336 22.927C337.938 25.3267 336.734 28.2147 336.734 31.5911C336.734 34.9675 337.929 37.8892 340.336 40.2889C342.709 42.6633 345.595 43.8589 348.995 43.8589C352.395 43.8589 355.256 42.6717 357.654 40.2889C360.027 37.8892 361.231 35.0012 361.256 31.6248V31.5911Z" fill="#663698"/>
</svg>
