<svg width="216" height="61" viewBox="0 0 216 61" fill="none" xmlns="http://www.w3.org/2000/svg">
<g clip-path="url(#clip0_2701_602)">
<path d="M57.4986 42.9683L50.8535 48.2753C47.9181 50.5994 40.2061 56.7208 36.0391 60.027C34.4205 61.311 32.1313 61.3232 30.4975 60.0575C23.9712 54.9914 8.16011 42.7182 7.20602 41.9649C4.16085 39.5981 1.86249 36.2705 0.771226 32.5648C-1.50884 24.8788 1.30466 16.4882 8.33386 12.389C11.6534 10.4096 15.6496 9.58606 19.4782 10.132C25.5777 10.9616 30.4822 15.0822 35.6825 17.8089C41.8765 21.2798 48.7076 20.5844 54.8528 17.269C50.82 21.9935 43.7694 23.6161 37.9199 21.5665C32.3112 19.7944 27.6657 15.7227 22.1972 13.9018C18.1156 12.4897 13.6469 12.9136 9.98295 15.1493C4.27973 18.5317 2.07891 25.379 3.95357 31.6101C4.85889 34.651 6.75488 37.3624 9.26357 39.2961C10.1811 39.9885 25.7148 51.8713 31.9301 56.6171C32.7257 57.224 33.8231 57.2301 34.6248 56.6293C39.1026 53.2743 45.5191 48.4919 49.0093 45.8811C49.0093 45.8811 51.9691 43.682 54.3803 41.8886C54.4778 41.9527 54.5815 42.0167 54.6851 42.0777C55.4959 42.5566 56.4714 42.8646 57.4956 42.9683H57.4986Z" fill="#00CB71"/>
<path d="M65.2502 32.4856C65.0277 33.2756 64.7503 34.0472 64.418 34.7945C64.3632 34.7792 64.3052 34.764 64.2412 34.7487C63.5828 34.5932 62.6927 34.4773 61.9581 34.401C62.3056 33.7544 62.6104 33.0834 62.8634 32.3972C64.229 28.6884 64.1589 24.5953 62.6927 20.9261C59.931 13.8928 52.216 9.74177 44.7997 11.0807C42.4465 11.4803 40.2426 12.3282 38.1424 13.5177C39.5293 12.255 41.218 11.3003 43.0104 10.672C51.8594 7.69217 61.8179 12.6789 64.8783 21.5026C66.1525 25.0009 66.2805 28.9019 65.2532 32.4826L65.2502 32.4856Z" fill="#00CB71"/>
<path d="M64.5613 41.4312C63.4853 41.8552 59.8914 42.1205 58.5289 42.148C58.4405 42.148 58.3612 42.148 58.2942 42.148C57.0901 42.148 55.9867 41.843 55.1271 41.3336C54.5906 41.0195 54.1486 40.623 53.8346 40.1746C50.9449 40.0984 43.5103 39.8849 43.4463 39.891L42.4922 39.8635C42.4373 39.7202 41.4436 36.9203 40.6389 34.6511C38.4838 39.7507 34.5302 49.102 33.6371 51.2187C33.1433 49.2392 30.4304 38.4788 28.8575 32.2233C27.3974 35.6454 25.4953 40.1197 25.4252 40.2753L24.4254 40.1472L11.8636 38.5551L23.3432 37.0972L27.9064 27.2152L29.5921 23.5674L30.5828 27.4409L34.3839 42.3157C36.6731 37.3473 40.3828 29.3014 40.8096 28.3742C41.404 29.8595 43.3701 34.7609 44.3424 37.1887L53.8773 36.9294C54.7094 35.7887 56.3738 35.014 58.2972 35.014C58.8703 35.014 60.1871 35.0842 61.4887 35.2123C62.4458 35.3068 63.3969 35.4319 64.0461 35.5844C64.2534 35.6332 64.4272 35.682 64.5613 35.7369C64.8204 35.8406 64.8844 36.0998 64.8082 36.3072C64.7503 36.4658 64.607 36.5909 64.3967 36.5909H58.1235C57.718 36.5909 57.3888 36.9203 57.3888 37.3259V37.4784C57.3888 37.8841 57.718 38.2135 58.1235 38.2135H64.3967C64.7503 38.2135 64.9606 38.6069 64.7655 38.9028L64.7533 38.9211C64.671 39.04 64.5339 39.1071 64.3936 39.1071H58.1235C57.718 39.1071 57.3888 39.4365 57.3888 39.8422C57.3888 40.2478 57.718 40.5772 58.1235 40.5772H64.3967C64.604 40.5772 64.7472 40.6992 64.8082 40.8548C64.8905 41.0622 64.8234 41.3306 64.5613 41.4312Z" fill="#663698"/>
<path d="M43.0713 0.000120312L42.989 0.0275703C39.0324 1.43057 36.8347 5.69447 38.0204 9.75402L38.2338 10.4616L38.9044 10.1597C42.7696 8.45167 44.6076 4.01392 43.114 0.0855203C43.1049 0.0580703 43.0957 0.0306203 43.0744 -0.00292969L43.0713 0.000120312Z" fill="#00CB71"/>
<path d="M37.0085 9.64405C35.6124 4.0351 30.0859 0.506253 24.4406 1.5829C24.4041 1.59205 24.3644 1.59815 24.3279 1.61035C24.3279 1.65305 24.3339 1.68965 24.3461 1.7293C25.288 7.4023 30.5005 11.3734 36.2403 10.739L37.2523 10.6262L37.0085 9.64405Z" fill="#00CB71"/>
<path d="M82.4087 32.0647L84.1675 13.7952L91.9374 25.8396L99.7073 13.7952L101.478 32.0647H100.149L98.674 17.8791L91.9374 28.2613L85.1886 17.8791L83.7377 32.0647H82.4087Z" fill="#663698"/>
<path d="M115.381 31.7719C114.241 32.4185 113.016 32.7448 111.705 32.7448C109.648 32.7448 107.889 32.0159 106.432 30.5549C104.981 29.1031 104.255 27.3494 104.255 25.2906C104.255 23.2319 104.981 21.472 106.432 20.0141C107.892 18.5623 109.648 17.8364 111.705 17.8364C113.016 17.8364 114.241 18.1567 115.381 18.7972C116.521 19.4438 117.427 20.3344 118.097 21.4659L118.454 22.0576L117.863 22.4023L106.737 28.8225C106.935 29.1001 107.151 29.3593 107.389 29.5972C108.587 30.7867 110.022 31.3815 111.705 31.3815C112.778 31.3815 113.778 31.1192 114.705 30.5946C115.646 30.07 116.393 29.3441 116.942 28.4169L118.097 29.1062C117.424 30.2377 116.518 31.1283 115.381 31.7749V31.7719ZM106.075 27.6391L116.564 21.5879C116.055 20.923 115.436 20.3862 114.708 19.9775C113.781 19.4529 112.781 19.1906 111.708 19.1906C110.029 19.1906 108.59 19.7854 107.392 20.9749C106.203 22.1644 105.609 23.604 105.609 25.2937C105.609 26.1141 105.764 26.898 106.075 27.6422V27.6391Z" fill="#663698"/>
<path d="M134.439 20.0233C134.75 20.3283 135.03 20.6546 135.274 21.0084V18.5227H136.627V32.0799H135.274V29.582C135.027 29.9358 134.75 30.2621 134.439 30.5671C132.988 32.0281 131.235 32.757 129.178 32.757C127.12 32.757 125.361 32.0281 123.904 30.5671C122.453 29.1153 121.728 27.3616 121.728 25.3028C121.728 23.2441 122.453 21.4842 123.904 20.0263C125.364 18.5745 127.12 17.8486 129.178 17.8486C131.235 17.8486 132.988 18.5745 134.439 20.0263V20.0233ZM135.274 25.2876C135.274 23.607 134.68 22.1705 133.491 20.981C132.293 19.7915 130.854 19.1967 129.174 19.1967C127.495 19.1967 126.056 19.7915 124.858 20.981C123.669 22.1705 123.075 23.6101 123.075 25.2998C123.075 26.9895 123.669 28.4169 124.858 29.6064C126.056 30.7959 127.495 31.3906 129.174 31.3906C130.854 31.3906 132.293 30.7959 133.491 29.6064C134.68 28.4169 135.274 26.9834 135.274 25.2998V25.2876Z" fill="#663698"/>
<path d="M142.416 14.4387V32.0677H141.063V14.4387H142.416Z" fill="#663698"/>
<path d="M154.255 17.0464V32.0676H151.527V17.0464H146.302V14.3167H159.483V17.0464H154.258H154.255Z" fill="#663698"/>
<path d="M160.059 25.2388C160.059 23.2624 160.76 21.5727 162.162 20.1697C163.555 18.7667 165.244 18.0652 167.228 18.0652C169.213 18.0652 170.892 18.7667 172.295 20.1697C173.697 21.5727 174.398 23.2624 174.398 25.2388C174.398 27.2152 173.697 28.9171 172.295 30.3201C170.892 31.7139 169.204 32.4124 167.228 32.4124C165.253 32.4124 163.555 31.7139 162.162 30.3201C160.76 28.9171 160.059 27.2243 160.059 25.2388ZM164.092 28.3894C164.951 29.2495 165.997 29.6826 167.228 29.6826C168.46 29.6826 169.496 29.2526 170.365 28.3894C171.234 27.5202 171.67 26.471 171.67 25.2388C171.67 24.0066 171.234 22.9726 170.365 22.1003C169.496 21.2402 168.451 20.8071 167.228 20.8071C166.006 20.8071 164.954 21.2372 164.092 22.1003C163.223 22.9696 162.787 24.0157 162.787 25.2388C162.787 26.4618 163.22 27.5202 164.092 28.3894Z" fill="#663698"/>
<path d="M177.605 36.1761V18.4129H180.333V20.0751C181.43 18.7392 182.912 18.0713 184.771 18.0713C186.746 18.0713 188.435 18.7728 189.837 20.1758C191.239 21.5788 191.94 23.2685 191.94 25.2449C191.94 27.2213 191.239 28.9232 189.837 30.3262C188.435 31.72 186.746 32.4185 184.771 32.4185C182.912 32.4185 181.43 31.7536 180.333 30.4268V36.1852H177.605V36.1761ZM180.333 25.251C180.333 26.474 180.766 27.5202 181.637 28.3894C182.497 29.2495 183.543 29.6826 184.774 29.6826C186.005 29.6826 187.042 29.2526 187.911 28.3894C188.779 27.5202 189.215 26.471 189.215 25.2388C189.215 24.0066 188.779 22.9726 187.911 22.1003C187.042 21.2402 185.996 20.8071 184.774 20.8071C183.552 20.8071 182.5 21.2372 181.637 22.1003C180.769 22.9696 180.333 24.0157 180.333 25.2388V25.251Z" fill="#663698"/>
<path d="M198.211 14.2893V17.0191H195.482V14.2893H198.211ZM198.211 18.4099V32.0647H195.482V18.4099H198.211Z" fill="#663698"/>
<path d="M213.269 20.072V18.4097H215.997V32.0646H213.269V30.4176C212.162 31.7474 210.684 32.4092 208.831 32.4092C206.846 32.4092 205.157 31.7108 203.764 30.3169C202.362 28.9139 201.661 27.2212 201.661 25.2356C201.661 23.2501 202.362 21.5695 203.764 20.1665C205.157 18.7635 206.846 18.062 208.831 18.062C210.684 18.062 212.162 18.73 213.269 20.0659V20.072ZM213.269 25.2387C213.26 24.0156 212.827 22.9725 211.964 22.1002C211.095 21.2401 210.05 20.807 208.828 20.807C207.605 20.807 206.554 21.2371 205.691 22.1002C204.822 22.9695 204.386 24.0156 204.386 25.2387C204.386 26.4617 204.819 27.5201 205.691 28.3893C206.551 29.2494 207.596 29.6825 208.828 29.6825C210.059 29.6825 211.095 29.2525 211.964 28.3893C212.824 27.5201 213.26 26.4739 213.269 25.2509V25.2387Z" fill="#663698"/>
<path d="M90.459 42.1966C90.6419 42.2728 90.7974 42.3735 90.9254 42.5016C91.0504 42.6266 91.1479 42.773 91.2119 42.9347C91.276 43.0963 91.3095 43.2671 91.3095 43.4379C91.3095 43.6514 91.2577 43.8588 91.151 44.0571C91.0443 44.2584 90.8827 44.4261 90.6663 44.5664C90.9528 44.6732 91.1662 44.8409 91.3064 45.0697C91.4466 45.2984 91.5168 45.5424 91.5168 45.7956C91.5168 45.9755 91.4832 46.1494 91.4192 46.3202C91.3552 46.491 91.2638 46.6435 91.1418 46.7807C91.0199 46.918 90.8736 47.0247 90.6968 47.104C90.52 47.1833 90.3188 47.223 90.0932 47.223H87.8345V42.0776H89.8372C90.0689 42.0776 90.2761 42.1173 90.459 42.1935V42.1966ZM88.3436 44.3285H89.825C90.1451 44.3285 90.3859 44.2401 90.5505 44.0601C90.7151 43.8802 90.7943 43.6819 90.7943 43.4593C90.7943 43.2366 90.712 43.0384 90.5505 42.8554C90.3859 42.6724 90.1451 42.5809 89.825 42.5809H88.3436V44.3285ZM88.3436 46.7258H90.0292C90.1938 46.7258 90.334 46.6984 90.4529 46.6465C90.5718 46.5947 90.6724 46.5245 90.7547 46.4361C90.837 46.3507 90.898 46.25 90.9376 46.1402C90.9772 46.0304 90.9986 45.9145 90.9986 45.7956C90.9986 45.6766 90.9772 45.5577 90.9376 45.4418C90.898 45.3259 90.837 45.2222 90.7547 45.1307C90.6724 45.0422 90.5718 44.966 90.4529 44.9111C90.334 44.8562 90.1938 44.8257 90.0292 44.8257H88.3436V46.7228V46.7258Z" fill="#B3B3B3"/>
<path d="M94.6991 47.2291V42.0837H97.8662V42.5839H95.2081V44.3834H97.8662V44.8836H95.2081V46.7319H97.8662V47.2321H94.6991V47.2291Z" fill="#B3B3B3"/>
<path d="M102.743 47.2291H102.231V42.5839H100.597V42.0837H104.377V42.5839H102.743V47.2291Z" fill="#B3B3B3"/>
<path d="M108.742 47.2291H108.23V42.5839H106.596V42.0837H110.376V42.5839H108.742V47.2291Z" fill="#B3B3B3"/>
<path d="M113.104 47.2291V42.0837H116.271V42.5839H113.613V44.3834H116.271V44.8836H113.613V46.7319H116.271V47.2321H113.104V47.2291Z" fill="#B3B3B3"/>
<path d="M120.024 45.1795V47.2291H119.512V42.0837H121.606C121.825 42.0837 122.029 42.1264 122.218 42.2088C122.41 42.2911 122.575 42.404 122.718 42.5443C122.862 42.6846 122.974 42.8462 123.06 43.0353C123.145 43.2214 123.188 43.4227 123.188 43.6362C123.188 43.8283 123.154 44.0113 123.084 44.1852C123.017 44.359 122.92 44.5146 122.792 44.6549C122.667 44.7952 122.514 44.9111 122.34 44.9995C122.167 45.088 121.978 45.149 121.773 45.1734L123.407 47.2321H122.773L121.139 45.1825H120.015L120.024 45.1795ZM122.026 44.6C122.154 44.5481 122.267 44.4719 122.365 44.3743C122.459 44.2767 122.535 44.1669 122.593 44.0388C122.651 43.9107 122.679 43.7765 122.679 43.6301C122.679 43.4837 122.651 43.3464 122.593 43.2214C122.535 43.0963 122.459 42.9865 122.365 42.892C122.27 42.7974 122.157 42.7242 122.026 42.6663C121.898 42.6083 121.758 42.5809 121.609 42.5809H120.024V44.6793H121.609C121.758 44.6793 121.898 44.6518 122.026 44.6Z" fill="#B3B3B3"/>
<path d="M132.643 42.2118C132.848 42.2972 133.027 42.4162 133.18 42.5656C133.332 42.7151 133.454 42.8889 133.543 43.0902C133.631 43.2915 133.677 43.502 133.677 43.7307C133.677 43.9595 133.631 44.1699 133.543 44.3712C133.454 44.5725 133.332 44.7464 133.18 44.8958C133.027 45.0453 132.848 45.1642 132.643 45.2496C132.439 45.335 132.22 45.3808 131.988 45.3808H130.507V47.2291H129.994V42.0837H131.988C132.22 42.0837 132.439 42.1264 132.643 42.2149V42.2118ZM130.507 44.8806H131.988C132.153 44.8806 132.305 44.8501 132.448 44.7921C132.592 44.7311 132.717 44.6518 132.82 44.5481C132.927 44.4444 133.009 44.3224 133.07 44.1821C133.131 44.0418 133.162 43.8924 133.162 43.7338C133.162 43.5752 133.131 43.4227 133.07 43.2854C133.009 43.1482 132.927 43.0231 132.82 42.9194C132.713 42.8157 132.592 42.7334 132.448 42.6754C132.305 42.6144 132.153 42.587 131.988 42.587H130.507V44.8867V44.8806Z" fill="#B3B3B3"/>
<path d="M136.813 47.2291V42.0837H139.98V42.5839H137.322V44.3834H139.98V44.8836H137.322V46.7319H139.98V47.2321H136.813V47.2291Z" fill="#B3B3B3"/>
<path d="M143.309 43.4747C143.401 43.1453 143.532 42.8769 143.702 42.6695C143.873 42.4621 144.08 42.3126 144.324 42.2211C144.568 42.1266 144.848 42.0808 145.162 42.0808C145.476 42.0808 145.754 42.1266 146.001 42.2211C146.245 42.3157 146.455 42.4651 146.622 42.6695C146.793 42.8769 146.924 43.1453 147.016 43.4747C147.107 43.8041 147.153 44.2067 147.153 44.6794C147.153 45.1522 147.107 45.5517 147.016 45.875C146.924 46.1983 146.793 46.4606 146.622 46.6589C146.452 46.8602 146.245 47.0035 146.001 47.092C145.757 47.1804 145.476 47.2262 145.162 47.2262C144.848 47.2262 144.571 47.1804 144.324 47.092C144.08 47.0035 143.87 46.8571 143.702 46.6589C143.532 46.4576 143.401 46.1983 143.309 45.875C143.218 45.5517 143.172 45.1552 143.172 44.6794C143.172 44.2036 143.218 43.8041 143.309 43.4747ZM143.785 45.6432C143.852 45.9055 143.949 46.119 144.077 46.2837C144.202 46.4484 144.358 46.5643 144.541 46.6345C144.723 46.7046 144.934 46.7382 145.162 46.7382C145.391 46.7382 145.601 46.7046 145.787 46.6345C145.97 46.5643 146.126 46.4484 146.251 46.2837C146.376 46.119 146.473 45.9086 146.543 45.6432C146.61 45.3809 146.647 45.0576 146.647 44.6794C146.647 44.3012 146.613 43.9657 146.543 43.7004C146.473 43.435 146.379 43.2185 146.251 43.0507C146.126 42.883 145.97 42.764 145.787 42.6908C145.604 42.6176 145.394 42.581 145.162 42.581C144.931 42.581 144.723 42.6176 144.541 42.6908C144.358 42.764 144.202 42.883 144.077 43.0507C143.952 43.2185 143.855 43.435 143.785 43.7004C143.714 43.9657 143.681 44.2921 143.681 44.6794C143.681 45.0668 143.714 45.3809 143.785 45.6432Z" fill="#B3B3B3"/>
<path d="M152.993 42.2118C153.197 42.2972 153.377 42.4162 153.53 42.5656C153.682 42.7151 153.804 42.8889 153.892 43.0902C153.981 43.2915 154.027 43.502 154.027 43.7307C154.027 43.9595 153.981 44.1699 153.892 44.3712C153.804 44.5725 153.682 44.7464 153.53 44.8958C153.377 45.0453 153.197 45.1642 152.993 45.2496C152.789 45.335 152.57 45.3808 152.338 45.3808H150.856V47.2291H150.344V42.0837H152.338C152.57 42.0837 152.789 42.1264 152.993 42.2149V42.2118ZM150.856 44.8806H152.338C152.503 44.8806 152.655 44.8501 152.798 44.7921C152.941 44.7311 153.066 44.6518 153.17 44.5481C153.277 44.4444 153.359 44.3224 153.42 44.1821C153.481 44.0418 153.511 43.8924 153.511 43.7338C153.511 43.5752 153.481 43.4227 153.42 43.2854C153.359 43.1482 153.277 43.0231 153.17 42.9194C153.063 42.8157 152.941 42.7334 152.798 42.6754C152.655 42.6144 152.503 42.587 152.338 42.587H150.856V44.8867V44.8806Z" fill="#B3B3B3"/>
<path d="M160.126 46.7289V47.2291H157.163V42.0837H157.675V46.7289H160.129H160.126Z" fill="#B3B3B3"/>
<path d="M162.854 47.2291V42.0837H166.021V42.5839H163.363V44.3834H166.021V44.8836H163.363V46.7319H166.021V47.2321H162.854V47.2291Z" fill="#B3B3B3"/>
<path d="M169.902 43.0568C169.893 42.8616 169.88 42.6542 169.871 42.4376C169.862 42.2211 169.85 42.0137 169.841 41.8185C169.832 41.6233 169.826 41.4769 169.826 41.3823H170.438C170.432 41.4769 170.423 41.6202 170.414 41.8185C170.405 42.0137 170.393 42.2211 170.383 42.4376C170.374 42.6542 170.362 42.8616 170.353 43.0568C170.344 43.252 170.338 43.3953 170.338 43.4807H169.929C169.923 43.3953 169.914 43.252 169.905 43.0568H169.902Z" fill="#B3B3B3"/>
<path d="M176.727 45.5241C176.587 45.393 176.416 45.271 176.212 45.149C176.007 45.03 175.782 44.908 175.538 44.7891C175.294 44.6701 175.068 44.539 174.864 44.3987C174.66 44.2584 174.489 44.1028 174.349 43.9351C174.209 43.7643 174.139 43.5691 174.139 43.3495C174.139 43.1909 174.178 43.0323 174.258 42.8798C174.337 42.7273 174.453 42.59 174.605 42.4711C174.758 42.3521 174.944 42.2576 175.163 42.1874C175.382 42.1173 175.632 42.0837 175.919 42.0837C176.151 42.0837 176.376 42.1051 176.599 42.1447C176.821 42.1844 177.019 42.2301 177.196 42.285L177.032 42.7639C176.876 42.712 176.699 42.6663 176.504 42.6327C176.309 42.5992 176.114 42.5839 175.916 42.5839C175.507 42.5839 175.193 42.6602 174.977 42.8127C174.758 42.9652 174.651 43.1451 174.651 43.3525C174.651 43.5203 174.721 43.6697 174.861 43.8009C175.001 43.9351 175.172 44.0632 175.376 44.1852C175.581 44.3072 175.806 44.4292 176.05 44.5512C176.294 44.6732 176.519 44.8013 176.724 44.9416C176.928 45.0819 177.099 45.2344 177.239 45.396C177.379 45.5607 177.449 45.7468 177.449 45.9603C177.449 46.1189 177.41 46.2775 177.33 46.43C177.251 46.5825 177.138 46.7167 176.989 46.8356C176.84 46.9515 176.654 47.0461 176.431 47.1193C176.209 47.1925 175.956 47.2291 175.669 47.2291C175.431 47.2291 175.2 47.2077 174.98 47.1681C174.758 47.1284 174.559 47.0827 174.383 47.0278L174.547 46.5581C174.703 46.6038 174.876 46.6435 175.068 46.677C175.261 46.7106 175.462 46.7258 175.672 46.7258C176.081 46.7258 176.394 46.6465 176.611 46.491C176.83 46.3354 176.937 46.1555 176.937 45.9572C176.937 45.7986 176.867 45.6522 176.727 45.5211V45.5241Z" fill="#B3B3B3"/>
<path d="M187.298 46.7289V47.2291H184.335V42.0837H184.847V46.7289H187.301H187.298Z" fill="#B3B3B3"/>
<path d="M190.538 47.2291H190.026V42.0837H190.538V47.2291Z" fill="#B3B3B3"/>
<path d="M195.485 46.5886L196.836 42.0837H197.366L195.833 47.2291H195.129L193.574 42.0837H194.105L195.485 46.5886Z" fill="#B3B3B3"/>
<path d="M200.399 47.2291V42.0837H203.566V42.5839H200.908V44.3834H203.566V44.8836H200.908V46.7319H203.566V47.2321H200.399V47.2291Z" fill="#B3B3B3"/>
<path d="M209.297 45.5241C209.157 45.393 208.986 45.271 208.782 45.149C208.578 45.03 208.352 44.908 208.108 44.7891C207.864 44.6701 207.639 44.539 207.435 44.3987C207.23 44.2584 207.06 44.1028 206.919 43.9351C206.779 43.7643 206.709 43.5691 206.709 43.3495C206.709 43.1909 206.749 43.0323 206.828 42.8798C206.907 42.7273 207.023 42.59 207.175 42.4711C207.328 42.3521 207.514 42.2576 207.733 42.1874C207.953 42.1173 208.203 42.0837 208.489 42.0837C208.721 42.0837 208.946 42.1051 209.169 42.1447C209.391 42.1844 209.59 42.2301 209.766 42.285L209.602 42.7639C209.446 42.712 209.27 42.6663 209.074 42.6327C208.879 42.5992 208.684 42.5839 208.486 42.5839C208.078 42.5839 207.764 42.6602 207.547 42.8127C207.328 42.9652 207.221 43.1451 207.221 43.3525C207.221 43.5203 207.291 43.6697 207.431 43.8009C207.572 43.9351 207.742 44.0632 207.947 44.1852C208.151 44.3072 208.376 44.4292 208.62 44.5512C208.864 44.6732 209.09 44.8013 209.294 44.9416C209.498 45.0819 209.669 45.2344 209.809 45.396C209.949 45.5607 210.019 45.7468 210.019 45.9603C210.019 46.1189 209.98 46.2775 209.901 46.43C209.821 46.5825 209.708 46.7167 209.559 46.8356C209.41 46.9546 209.224 47.0461 209.001 47.1193C208.779 47.1925 208.526 47.2291 208.239 47.2291C208.001 47.2291 207.77 47.2077 207.55 47.1681C207.328 47.1284 207.13 47.0827 206.953 47.0278L207.117 46.5581C207.273 46.6038 207.447 46.6435 207.639 46.677C207.831 46.7106 208.032 46.7258 208.242 46.7258C208.651 46.7258 208.965 46.6465 209.181 46.491C209.401 46.3354 209.507 46.1555 209.507 45.9572C209.507 45.7986 209.437 45.6522 209.297 45.5211V45.5241Z" fill="#B3B3B3"/>
</g>
<defs>
<clipPath id="clip0_2701_602">
<rect width="216" height="61" fill="white"/>
</clipPath>
</defs>
</svg>
