<svg width="231" height="67" viewBox="0 0 231 67" fill="none" xmlns="http://www.w3.org/2000/svg">
<rect width="231" height="67" rx="10" fill="black"/>
<path d="M35.661 32.4983L17.0402 52.1223C17.042 52.1258 17.042 52.131 17.0437 52.1345C17.6156 54.2653 19.5744 55.8335 21.9005 55.8335C22.8309 55.8335 23.7036 55.5834 24.4522 55.1458L24.5116 55.1111L45.4707 43.1022L35.661 32.4983Z" fill="#EA4335"/>
<path d="M54.4985 29.1566L54.4811 29.1445L45.4321 23.9363L35.2376 32.9442L45.4688 43.1001L54.4688 37.944C56.0463 37.0965 57.1184 35.445 57.1184 33.5416C57.1184 31.6487 56.0621 30.0058 54.4985 29.1566Z" fill="#FBBC04"/>
<path d="M17.0399 14.8766C16.928 15.2865 16.8685 15.7171 16.8685 16.1617V50.8389C16.8685 51.2835 16.928 51.7142 17.0416 52.1223L36.3008 33.0002L17.0399 14.8766Z" fill="#4285F4"/>
<path d="M35.7986 33.5L45.4351 23.9329L24.5005 11.8806C23.7397 11.4273 22.8513 11.1668 21.9016 11.1668C19.5756 11.1668 17.6133 12.7385 17.0414 14.8711C17.0414 14.8728 17.0396 14.8745 17.0396 14.8763L35.7986 33.5Z" fill="#34A853"/>
<path d="M84.5279 16.7117C84.5279 18.0873 84.118 19.1822 83.2964 19.9996C82.3623 20.9714 81.1473 21.4573 79.6529 21.4573C78.2196 21.4573 77.0029 20.9648 76.0028 19.9783C74.9994 18.9934 74.5001 17.7705 74.5001 16.3128C74.5001 14.8535 74.9994 13.6322 76.0028 12.6457C77.0029 11.6608 78.2196 11.1667 79.6529 11.1667C80.3621 11.1667 81.0432 11.3046 81.6879 11.5803C82.3342 11.8561 82.8517 12.2222 83.2401 12.6802L82.3673 13.5469C81.711 12.7688 80.8068 12.3781 79.6529 12.3781C78.6081 12.3781 77.7055 12.7425 76.9434 13.4714C76.1813 14.2018 75.8011 15.1473 75.8011 16.3128C75.8011 17.4766 76.1813 18.4238 76.9434 19.1526C77.7055 19.8831 78.6081 20.2458 79.6529 20.2458C80.7605 20.2458 81.6829 19.8798 82.4235 19.146C82.9029 18.6684 83.179 18.0052 83.2534 17.1516H79.6529V15.9681H84.4585C84.5048 16.2258 84.5279 16.4737 84.5279 16.7117Z" fill="white"/>
<path d="M84.5279 16.7117C84.5279 18.0873 84.118 19.1822 83.2964 19.9996C82.3623 20.9714 81.1473 21.4573 79.6529 21.4573C78.2196 21.4573 77.0029 20.9648 76.0028 19.9783C74.9994 18.9934 74.5001 17.7705 74.5001 16.3128C74.5001 14.8535 74.9994 13.6322 76.0028 12.6457C77.0029 11.6608 78.2196 11.1667 79.6529 11.1667C80.3621 11.1667 81.0432 11.3046 81.6879 11.5803C82.3342 11.8561 82.8517 12.2222 83.2401 12.6802L82.3673 13.5469C81.711 12.7688 80.8068 12.3781 79.6529 12.3781C78.6081 12.3781 77.7055 12.7425 76.9434 13.4714C76.1813 14.2018 75.8011 15.1473 75.8011 16.3128C75.8011 17.4766 76.1813 18.4238 76.9434 19.1526C77.7055 19.8831 78.6081 20.2458 79.6529 20.2458C80.7605 20.2458 81.6829 19.8798 82.4235 19.146C82.9029 18.6684 83.179 18.0052 83.2534 17.1516H79.6529V15.9681H84.4585C84.5048 16.2258 84.5279 16.4737 84.5279 16.7117Z" fill="white"/>
<path d="M92.1477 12.5983H87.6314V15.7205H91.7046V16.904H87.6314V20.0261H92.1477V21.2375H86.3568V11.3885H92.1477V12.5983Z" fill="white"/>
<path d="M92.1477 12.5983H87.6314V15.7205H91.7046V16.904H87.6314V20.0261H92.1477V21.2375H86.3568V11.3885H92.1477V12.5983Z" fill="white"/>
<path d="M97.522 21.2371H96.2474V12.5978H93.4768V11.388H100.293V12.5978H97.522V21.2371Z" fill="white"/>
<path d="M97.522 21.2371H96.2474V12.5978H93.4768V11.388H100.293V12.5978H97.522V21.2371Z" fill="white"/>
<path d="M105.224 11.388H106.499V21.2371H105.224V11.388Z" fill="white"/>
<path d="M112.151 21.2371H110.877V12.5978H108.106V11.388H114.922V12.5978H112.151V21.2371Z" fill="white"/>
<path d="M112.151 21.2371H110.877V12.5978H108.106V11.388H114.922V12.5978H112.151V21.2371Z" fill="white"/>
<path d="M121.493 19.1395C122.227 19.8781 123.125 20.2458 124.188 20.2458C125.251 20.2458 126.148 19.8781 126.882 19.1395C127.616 18.4008 127.985 17.4586 127.985 16.3128C127.985 15.167 127.616 14.2232 126.882 13.4861C126.148 12.7475 125.251 12.3781 124.188 12.3781C123.125 12.3781 122.227 12.7475 121.493 13.4861C120.761 14.2232 120.392 15.167 120.392 16.3128C120.392 17.4586 120.761 18.4008 121.493 19.1395ZM127.824 19.9635C126.849 20.9599 125.637 21.4573 124.188 21.4573C122.738 21.4573 121.526 20.9599 120.552 19.9635C119.577 18.9688 119.091 17.7524 119.091 16.3128C119.091 14.8732 119.577 13.6552 120.552 12.6605C121.526 11.6657 122.738 11.1667 124.188 11.1667C125.629 11.1667 126.838 11.6673 127.818 12.667C128.796 13.6667 129.286 14.8814 129.286 16.3128C129.286 17.7524 128.798 18.9688 127.824 19.9635Z" fill="white"/>
<path d="M121.493 19.1395C122.227 19.8781 123.125 20.2458 124.188 20.2458C125.251 20.2458 126.148 19.8781 126.882 19.1395C127.616 18.4008 127.985 17.4586 127.985 16.3128C127.985 15.167 127.616 14.2232 126.882 13.4861C126.148 12.7475 125.251 12.3781 124.188 12.3781C123.125 12.3781 122.227 12.7475 121.493 13.4861C120.761 14.2232 120.392 15.167 120.392 16.3128C120.392 17.4586 120.761 18.4008 121.493 19.1395ZM127.824 19.9635C126.849 20.9599 125.637 21.4573 124.188 21.4573C122.738 21.4573 121.526 20.9599 120.552 19.9635C119.577 18.9688 119.091 17.7524 119.091 16.3128C119.091 14.8732 119.577 13.6552 120.552 12.6605C121.526 11.6657 122.738 11.1667 124.188 11.1667C125.629 11.1667 126.838 11.6673 127.818 12.667C128.796 13.6667 129.286 14.8814 129.286 16.3128C129.286 17.7524 128.798 18.9688 127.824 19.9635Z" fill="white"/>
<path d="M131.074 21.2371V11.388H132.625L137.445 19.0489H137.502L137.445 17.1514V11.388H138.722V21.2371H137.391L132.347 13.2035H132.293L132.347 15.1028V21.2371H131.074Z" fill="white"/>
<path d="M131.074 21.2371V11.388H132.625L137.445 19.0489H137.502L137.445 17.1514V11.388H138.722V21.2371H137.391L132.347 13.2035H132.293L132.347 15.1028V21.2371H131.074Z" fill="white"/>
<path d="M182.917 49.1427H186.002V28.6223H182.917V49.1427ZM210.701 36.014L207.165 44.9109H207.059L203.39 36.014H200.067L205.57 48.4484L202.434 55.3657H205.649L214.132 36.014H210.701ZM193.208 46.8118C192.196 46.8118 190.788 46.3111 190.788 45.0685C190.788 43.4861 192.542 42.8787 194.058 42.8787C195.413 42.8787 196.053 43.1693 196.876 43.5649C196.637 45.4658 194.988 46.8118 193.208 46.8118ZM193.58 35.5658C191.347 35.5658 189.032 36.5425 188.077 38.7077L190.814 39.842C191.399 38.7077 192.489 38.3367 193.633 38.3367C195.228 38.3367 196.85 39.2871 196.876 40.9779V41.188C196.318 40.8712 195.122 40.3968 193.659 40.3968C190.708 40.3968 187.703 42.0071 187.703 45.016C187.703 47.7622 190.123 49.5318 192.834 49.5318C194.909 49.5318 196.053 48.6076 196.77 47.5242H196.876V49.1083H199.854V41.2405C199.854 37.598 197.116 35.5658 193.58 35.5658ZM174.516 38.5123H170.129V31.4785H174.516C176.822 31.4785 178.132 33.3744 178.132 34.9946C178.132 36.5852 176.822 38.5123 174.516 38.5123ZM174.437 28.6223H167.046V49.1427H170.129V41.3686H174.437C177.856 41.3686 181.216 38.9096 181.216 34.9946C181.216 31.0796 177.856 28.6223 174.437 28.6223ZM134.132 46.8151C132.001 46.8151 130.218 45.0439 130.218 42.6112C130.218 40.1522 132.001 38.3531 134.132 38.3531C136.237 38.3531 137.886 40.1522 137.886 42.6112C137.886 45.0439 136.237 46.8151 134.132 46.8151ZM137.675 37.163H137.567C136.875 36.3439 135.544 35.6036 133.866 35.6036C130.35 35.6036 127.128 38.6699 127.128 42.6112C127.128 46.5245 130.35 49.5662 133.866 49.5662C135.544 49.5662 136.875 48.8259 137.567 47.9789H137.675V48.9851C137.675 51.6559 136.237 53.084 133.919 53.084C132.028 53.084 130.856 51.7347 130.376 50.5971L127.687 51.7084C128.459 53.56 130.51 55.8335 133.919 55.8335C137.541 55.8335 140.604 53.7176 140.604 48.5616V36.0255H137.675V37.163ZM142.735 49.1427H145.825V28.6206H142.735V49.1427ZM150.377 42.3732C150.298 39.6762 152.482 38.3006 154.052 38.3006C155.279 38.3006 156.317 38.9079 156.663 39.7812L150.377 42.3732ZM159.965 40.0455C159.38 38.4861 157.595 35.6036 153.947 35.6036C150.325 35.6036 147.316 38.4319 147.316 42.5849C147.316 46.4983 150.298 49.5662 154.292 49.5662C157.516 49.5662 159.38 47.6096 160.152 46.472L157.755 44.8847C156.957 46.0485 155.864 46.8151 154.292 46.8151C152.722 46.8151 151.602 46.101 150.883 44.7008L160.285 40.8384L159.965 40.0455ZM85.0661 37.7458V40.707H92.2026C91.9893 42.3732 91.4306 43.5895 90.5792 44.4349C89.5394 45.4674 87.9144 46.605 85.0661 46.605C80.6705 46.605 77.2353 43.0872 77.2353 38.7241C77.2353 34.3593 80.6705 30.8432 85.0661 30.8432C87.4367 30.8432 89.1675 31.769 90.4453 32.9591L92.5498 30.8695C90.7644 29.1771 88.3955 27.8803 85.0661 27.8803C79.0471 27.8803 73.9869 32.7474 73.9869 38.7241C73.9869 44.7008 79.0471 49.5662 85.0661 49.5662C88.3145 49.5662 90.7644 48.5075 92.682 46.5245C94.6542 44.5679 95.2658 41.8183 95.2658 39.5957C95.2658 38.9079 95.2129 38.2743 95.1055 37.7458H85.0661ZM103.381 46.8151C101.25 46.8151 99.4118 45.0702 99.4118 42.5849C99.4118 40.0718 101.25 38.3531 103.381 38.3531C105.51 38.3531 107.348 40.0718 107.348 42.5849C107.348 45.0702 105.51 46.8151 103.381 46.8151ZM103.381 35.6036C99.4912 35.6036 96.3222 38.5386 96.3222 42.5849C96.3222 46.605 99.4912 49.5662 103.381 49.5662C107.269 49.5662 110.438 46.605 110.438 42.5849C110.438 38.5386 107.269 35.6036 103.381 35.6036ZM118.776 46.8151C116.646 46.8151 114.807 45.0702 114.807 42.5849C114.807 40.0718 116.646 38.3531 118.776 38.3531C120.907 38.3531 122.744 40.0718 122.744 42.5849C122.744 45.0702 120.907 46.8151 118.776 46.8151ZM118.776 35.6036C114.888 35.6036 111.719 38.5386 111.719 42.5849C111.719 46.605 114.888 49.5662 118.776 49.5662C122.665 49.5662 125.834 46.605 125.834 42.5849C125.834 38.5386 122.665 35.6036 118.776 35.6036Z" fill="white"/>
</svg>
